<svg width="157" height="80" viewBox="0 0 157 80" fill="none" xmlns="http://www.w3.org/2000/svg">
<path opacity="0.8" d="M17.0768 1.84223H22.7594C23.794 1.84223 24.646 1.98677 25.3154 2.27584C25.9849 2.5497 26.5097 2.90724 26.8901 3.34846C27.2857 3.77447 27.5595 4.26133 27.7117 4.80905C27.8638 5.34156 27.9399 5.85885 27.9399 6.36093C27.9399 6.863 27.8638 7.3879 27.7117 7.93563C27.5595 8.46813 27.2857 8.955 26.8901 9.39622C26.5097 9.82222 25.9849 10.1798 25.3154 10.4688C24.646 10.7427 23.794 10.8796 22.7594 10.8796H19.2677V18H17.0768V1.84223ZM19.2677 8.9626H22.1432C22.5692 8.9626 22.9876 8.93217 23.3984 8.87132C23.8244 8.79524 24.1971 8.66592 24.5167 8.48335C24.8514 8.30077 25.1176 8.04213 25.3154 7.70741C25.5132 7.35747 25.6121 6.90865 25.6121 6.36093C25.6121 5.81321 25.5132 5.37199 25.3154 5.03727C25.1176 4.68734 24.8514 4.42108 24.5167 4.23851C24.1971 4.05593 23.8244 3.93422 23.3984 3.87336C22.9876 3.79729 22.5692 3.75925 22.1432 3.75925H19.2677V8.9626ZM31.746 12.5913C31.746 13.139 31.8296 13.6487 31.997 14.1203C32.1644 14.5767 32.4002 14.9723 32.7045 15.307C33.0088 15.6265 33.3815 15.8852 33.8227 16.083C34.264 16.2655 34.7584 16.3568 35.3062 16.3568C35.8539 16.3568 36.3483 16.2655 36.7896 16.083C37.2308 15.8852 37.6035 15.6265 37.9078 15.307C38.2121 14.9723 38.4479 14.5767 38.6153 14.1203C38.7827 13.6487 38.8663 13.139 38.8663 12.5913C38.8663 12.0435 38.7827 11.5415 38.6153 11.085C38.4479 10.6134 38.2121 10.2178 37.9078 9.89829C37.6035 9.56357 37.2308 9.30493 36.7896 9.12235C36.3483 8.92457 35.8539 8.82567 35.3062 8.82567C34.7584 8.82567 34.264 8.92457 33.8227 9.12235C33.3815 9.30493 33.0088 9.56357 32.7045 9.89829C32.4002 10.2178 32.1644 10.6134 31.997 11.085C31.8296 11.5415 31.746 12.0435 31.746 12.5913ZM29.5551 12.5913C29.5551 11.8001 29.6996 11.0622 29.9887 10.3775C30.293 9.6929 30.7038 9.09193 31.2211 8.57463C31.7384 8.05734 32.3469 7.65416 33.0468 7.36508C33.7467 7.06079 34.4998 6.90865 35.3062 6.90865C36.1125 6.90865 36.8656 7.06079 37.5655 7.36508C38.2654 7.65416 38.8739 8.05734 39.3912 8.57463C39.9085 9.09193 40.3117 9.6929 40.6008 10.3775C40.9051 11.0622 41.0572 11.8001 41.0572 12.5913C41.0572 13.3824 40.9051 14.1279 40.6008 14.8278C40.3117 15.5124 39.9085 16.1134 39.3912 16.6307C38.8739 17.1328 38.2654 17.536 37.5655 17.8402C36.8656 18.1293 36.1125 18.2739 35.3062 18.2739C34.4998 18.2739 33.7467 18.1293 33.0468 17.8402C32.3469 17.536 31.7384 17.1328 31.2211 16.6307C30.7038 16.1134 30.293 15.5124 29.9887 14.8278C29.6996 14.1279 29.5551 13.3824 29.5551 12.5913ZM42.3295 7.18251H44.6345L47.0764 15.2614H47.1221L49.7009 7.18251H51.869L54.6076 15.2614H54.6533L56.9811 7.18251H59.1491L55.6574 18H53.5806L50.7279 9.92111H50.6823L48.1034 18H45.8897L42.3295 7.18251ZM62.4991 13.3444C62.4991 13.816 62.598 14.2496 62.7958 14.6452C63.0088 15.0256 63.2827 15.3527 63.6174 15.6265C63.9521 15.9004 64.3401 16.1134 64.7813 16.2655C65.2225 16.4177 65.6789 16.4938 66.1506 16.4938C66.7896 16.4938 67.3449 16.3492 67.8166 16.0602C68.2882 15.7559 68.7218 15.3603 69.1174 14.8734L70.6693 16.0602C69.5282 17.536 67.9307 18.2739 65.8767 18.2739C65.0247 18.2739 64.2488 18.1293 63.5489 17.8402C62.8643 17.5512 62.2785 17.1556 61.7916 16.6535C61.32 16.1362 60.9548 15.5353 60.6962 14.8506C60.4376 14.1507 60.3082 13.3976 60.3082 12.5913C60.3082 11.7849 60.4452 11.0394 60.719 10.3547C61.0081 9.65486 61.3961 9.05389 61.8829 8.55181C62.385 8.03452 62.9784 7.63134 63.663 7.34226C64.3477 7.05319 65.0932 6.90865 65.8995 6.90865C66.8581 6.90865 67.6644 7.07601 68.3186 7.41073C68.9881 7.74544 69.5358 8.18666 69.9618 8.73439C70.3878 9.26689 70.6921 9.87547 70.8747 10.5601C71.0725 11.2296 71.1714 11.9142 71.1714 12.6141V13.3444H62.4991ZM68.9805 11.7012C68.9653 11.2448 68.8892 10.8264 68.7523 10.446C68.6305 10.0657 68.4404 9.73854 68.1817 9.46468C67.9231 9.17561 67.596 8.955 67.2004 8.80285C66.82 8.63549 66.3712 8.55181 65.8539 8.55181C65.3518 8.55181 64.8878 8.65071 64.4618 8.84849C64.051 9.03107 63.7011 9.2745 63.412 9.57879C63.1229 9.88308 62.8947 10.2254 62.7273 10.6058C62.5752 10.9709 62.4991 11.3361 62.4991 11.7012H68.9805ZM73.6284 7.18251H75.6824V8.84849H75.728C75.865 8.55942 76.0475 8.30077 76.2758 8.07256C76.504 7.82912 76.755 7.62373 77.0289 7.45637C77.3179 7.28901 77.6298 7.15969 77.9646 7.0684C78.2993 6.9619 78.634 6.90865 78.9687 6.90865C79.3034 6.90865 79.6077 6.95429 79.8816 7.04558L79.7903 9.25928C79.6229 9.21364 79.4556 9.17561 79.2882 9.14518C79.1209 9.11475 78.9535 9.09953 78.7861 9.09953C77.782 9.09953 77.0137 9.381 76.4812 9.94394C75.9486 10.5069 75.6824 11.3817 75.6824 12.5684V18H73.6284V7.18251ZM83.2259 13.3444C83.2259 13.816 83.3248 14.2496 83.5225 14.6452C83.7355 15.0256 84.0094 15.3527 84.3441 15.6265C84.6788 15.9004 85.0668 16.1134 85.508 16.2655C85.9493 16.4177 86.4057 16.4938 86.8773 16.4938C87.5163 16.4938 88.0717 16.3492 88.5433 16.0602C89.015 15.7559 89.4486 15.3603 89.8442 14.8734L91.396 16.0602C90.2549 17.536 88.6574 18.2739 86.6035 18.2739C85.7515 18.2739 84.9755 18.1293 84.2757 17.8402C83.591 17.5512 83.0053 17.1556 82.5184 16.6535C82.0467 16.1362 81.6816 15.5353 81.4229 14.8506C81.1643 14.1507 81.035 13.3976 81.035 12.5913C81.035 11.7849 81.1719 11.0394 81.4458 10.3547C81.7348 9.65486 82.1228 9.05389 82.6097 8.55181C83.1118 8.03452 83.7051 7.63134 84.3898 7.34226C85.0744 7.05319 85.8199 6.90865 86.6263 6.90865C87.5848 6.90865 88.3912 7.07601 89.0454 7.41073C89.7148 7.74544 90.2626 8.18666 90.6886 8.73439C91.1146 9.26689 91.4189 9.87547 91.6014 10.5601C91.7992 11.2296 91.8981 11.9142 91.8981 12.6141V13.3444H83.2259ZM89.7072 11.7012C89.692 11.2448 89.6159 10.8264 89.479 10.446C89.3573 10.0657 89.1671 9.73854 88.9085 9.46468C88.6498 9.17561 88.3227 8.955 87.9271 8.80285C87.5468 8.63549 87.0979 8.55181 86.5807 8.55181C86.0786 8.55181 85.6145 8.65071 85.1885 8.84849C84.7777 9.03107 84.4278 9.2745 84.1387 9.57879C83.8497 9.88308 83.6214 10.2254 83.4541 10.6058C83.3019 10.9709 83.2259 11.3361 83.2259 11.7012H89.7072ZM105.196 18H103.142V16.4481H103.096C102.7 17.0263 102.153 17.4751 101.453 17.7946C100.768 18.1141 100.061 18.2739 99.3303 18.2739C98.4935 18.2739 97.7328 18.1293 97.0482 17.8402C96.3787 17.5512 95.8006 17.148 95.3137 16.6307C94.8421 16.1134 94.4769 15.5124 94.2183 14.8278C93.9596 14.1431 93.8303 13.3976 93.8303 12.5913C93.8303 11.7849 93.9596 11.0394 94.2183 10.3547C94.4769 9.65486 94.8421 9.05389 95.3137 8.55181C95.8006 8.03452 96.3787 7.63134 97.0482 7.34226C97.7328 7.05319 98.4935 6.90865 99.3303 6.90865C100.106 6.90865 100.837 7.07601 101.521 7.41073C102.206 7.73023 102.731 8.17145 103.096 8.73439H103.142V0.746786H105.196V18ZM99.5814 16.3568C100.129 16.3568 100.624 16.2655 101.065 16.083C101.506 15.8852 101.879 15.6265 102.183 15.307C102.487 14.9723 102.723 14.5767 102.891 14.1203C103.058 13.6487 103.142 13.139 103.142 12.5913C103.142 12.0435 103.058 11.5415 102.891 11.085C102.723 10.6134 102.487 10.2178 102.183 9.89829C101.879 9.56357 101.506 9.30493 101.065 9.12235C100.624 8.92457 100.129 8.82567 99.5814 8.82567C99.0336 8.82567 98.5392 8.92457 98.098 9.12235C97.6567 9.30493 97.284 9.56357 96.9797 9.89829C96.6754 10.2178 96.4396 10.6134 96.2722 11.085C96.1049 11.5415 96.0212 12.0435 96.0212 12.5913C96.0212 13.139 96.1049 13.6487 96.2722 14.1203C96.4396 14.5767 96.6754 14.9723 96.9797 15.307C97.284 15.6265 97.6567 15.8852 98.098 16.083C98.5392 16.2655 99.0336 16.3568 99.5814 16.3568ZM114.658 0.746786H116.712V8.73439H116.758C117.123 8.17145 117.648 7.73023 118.333 7.41073C119.017 7.07601 119.748 6.90865 120.524 6.90865C121.36 6.90865 122.114 7.05319 122.783 7.34226C123.468 7.63134 124.046 8.03452 124.517 8.55181C125.004 9.05389 125.377 9.65486 125.636 10.3547C125.894 11.0394 126.024 11.7849 126.024 12.5913C126.024 13.3976 125.894 14.1431 125.636 14.8278C125.377 15.5124 125.004 16.1134 124.517 16.6307C124.046 17.148 123.468 17.5512 122.783 17.8402C122.114 18.1293 121.36 18.2739 120.524 18.2739C119.793 18.2739 119.078 18.1141 118.378 17.7946C117.694 17.4751 117.154 17.0263 116.758 16.4481H116.712V18H114.658V0.746786ZM120.273 16.3568C120.82 16.3568 121.315 16.2655 121.756 16.083C122.197 15.8852 122.57 15.6265 122.874 15.307C123.179 14.9723 123.414 14.5767 123.582 14.1203C123.749 13.6487 123.833 13.139 123.833 12.5913C123.833 12.0435 123.749 11.5415 123.582 11.085C123.414 10.6134 123.179 10.2178 122.874 9.89829C122.57 9.56357 122.197 9.30493 121.756 9.12235C121.315 8.92457 120.82 8.82567 120.273 8.82567C119.725 8.82567 119.23 8.92457 118.789 9.12235C118.348 9.30493 117.975 9.56357 117.671 9.89829C117.367 10.2178 117.131 10.6134 116.963 11.085C116.796 11.5415 116.712 12.0435 116.712 12.5913C116.712 13.139 116.796 13.6487 116.963 14.1203C117.131 14.5767 117.367 14.9723 117.671 15.307C117.975 15.6265 118.348 15.8852 118.789 16.083C119.23 16.2655 119.725 16.3568 120.273 16.3568ZM127.309 7.18251H129.683L132.901 15.6265H132.946L136.004 7.18251H138.218L133.083 20.3278C132.901 20.7995 132.71 21.2255 132.513 21.6058C132.315 22.0014 132.079 22.3361 131.805 22.61C131.531 22.8838 131.197 23.0968 130.801 23.249C130.421 23.4011 129.949 23.4772 129.386 23.4772C129.082 23.4772 128.77 23.4544 128.45 23.4087C128.146 23.3783 127.849 23.3022 127.56 23.1805L127.811 21.3091C128.222 21.4765 128.633 21.5602 129.044 21.5602C129.363 21.5602 129.629 21.5145 129.842 21.4233C130.071 21.3472 130.261 21.2255 130.413 21.0581C130.58 20.906 130.717 20.7234 130.824 20.5104C130.93 20.2974 131.037 20.054 131.143 19.7801L131.805 18.0685L127.309 7.18251Z" fill="#F3F7FA"/>
<path d="M0.312531 35.614H11.2218C13.4302 35.614 15.3588 35.8643 17.0077 36.3648C18.686 36.8654 20.1288 37.5426 21.3361 38.3965C22.5727 39.221 23.5886 40.1779 24.3836 41.2674C25.208 42.3568 25.8558 43.4757 26.3269 44.6241C26.7981 45.7724 27.1367 46.9208 27.3428 48.0691C27.5489 49.2174 27.652 50.2775 27.652 51.2491C27.652 53.2514 27.2839 55.1947 26.5478 57.0792C25.8117 58.9342 24.7222 60.5978 23.2794 62.0701C21.8366 63.5129 20.0405 64.6759 17.891 65.5593C15.771 66.4426 13.3124 66.8843 10.5151 66.8843H0.312531V35.614ZM4.55257 62.9092H9.89679C11.6929 62.9092 13.386 62.6737 14.976 62.2026C16.5955 61.702 18.0088 60.9659 19.216 59.9942C20.4233 59.0225 21.3802 57.8153 22.0869 56.3725C22.7936 54.9003 23.1469 53.1925 23.1469 51.2491C23.1469 50.248 22.985 49.0849 22.6611 47.7599C22.3372 46.4055 21.7188 45.1246 20.8061 43.9174C19.9227 42.7102 18.686 41.6943 17.096 40.8699C15.506 40.016 13.4449 39.589 10.9126 39.589H4.55257V62.9092ZM34.4188 57.8742C34.4188 58.787 34.6102 59.6262 34.993 60.3917C35.4052 61.1278 35.9352 61.7609 36.583 62.2909C37.2308 62.8209 37.9816 63.2331 38.8355 63.5276C39.6894 63.822 40.5728 63.9692 41.4856 63.9692C42.7222 63.9692 43.797 63.6895 44.7098 63.1301C45.6226 62.5412 46.4617 61.7756 47.2273 60.8334L50.2307 63.1301C48.0223 65.9862 44.9306 67.4143 40.9556 67.4143C39.3067 67.4143 37.805 67.1346 36.4505 66.5751C35.1255 66.0157 33.9919 65.2501 33.0497 64.2784C32.1369 63.2773 31.4302 62.1142 30.9296 60.7892C30.4291 59.4348 30.1788 57.9772 30.1788 56.4167C30.1788 54.8561 30.4438 53.4133 30.9738 52.0883C31.5333 50.7338 32.2841 49.5708 33.2263 48.5991C34.198 47.598 35.3463 46.8177 36.6714 46.2582C37.9964 45.6988 39.4392 45.4191 40.9997 45.4191C42.8548 45.4191 44.4153 45.743 45.6814 46.3907C46.977 47.0385 48.037 47.8924 48.8615 48.9524C49.6859 49.983 50.2748 51.1608 50.6282 52.4858C51.0109 53.7814 51.2023 55.1064 51.2023 56.4608V57.8742H34.4188ZM46.9623 54.6942C46.9328 53.8108 46.7856 53.0011 46.5206 52.265C46.2851 51.5289 45.917 50.8958 45.4164 50.3658C44.9159 49.8063 44.2828 49.3794 43.5173 49.0849C42.7811 48.761 41.9125 48.5991 40.9114 48.5991C39.9397 48.5991 39.0417 48.7905 38.2172 49.1733C37.4222 49.5266 36.745 49.9977 36.1855 50.5866C35.6261 51.1755 35.1844 51.838 34.8605 52.5741C34.5661 53.2808 34.4188 53.9875 34.4188 54.6942H46.9623ZM57.6359 57.8742C57.6359 58.787 57.8273 59.6262 58.2101 60.3917C58.6223 61.1278 59.1523 61.7609 59.8001 62.2909C60.4479 62.8209 61.1987 63.2331 62.0526 63.5276C62.9065 63.822 63.7898 63.9692 64.7026 63.9692C65.9393 63.9692 67.014 63.6895 67.9268 63.1301C68.8396 62.5412 69.6788 61.7756 70.4443 60.8334L73.4477 63.1301C71.2393 65.9862 68.1477 67.4143 64.1726 67.4143C62.5237 67.4143 61.022 67.1346 59.6676 66.5751C58.3426 66.0157 57.2089 65.2501 56.2667 64.2784C55.3539 63.2773 54.6472 62.1142 54.1467 60.7892C53.6461 59.4348 53.3958 57.9772 53.3958 56.4167C53.3958 54.8561 53.6608 53.4133 54.1909 52.0883C54.7503 50.7338 55.5011 49.5708 56.4434 48.5991C57.4151 47.598 58.5634 46.8177 59.8884 46.2582C61.2134 45.6988 62.6562 45.4191 64.2168 45.4191C66.0718 45.4191 67.6324 45.743 68.8985 46.3907C70.1941 47.0385 71.2541 47.8924 72.0785 48.9524C72.903 49.983 73.4919 51.1608 73.8452 52.4858C74.228 53.7814 74.4194 55.1064 74.4194 56.4608V57.8742H57.6359ZM70.1793 54.6942C70.1499 53.8108 70.0027 53.0011 69.7377 52.265C69.5021 51.5289 69.134 50.8958 68.6335 50.3658C68.1329 49.8063 67.4999 49.3794 66.7343 49.0849C65.9982 48.761 65.1296 48.5991 64.1284 48.5991C63.1568 48.5991 62.2587 48.7905 61.4343 49.1733C60.6392 49.5266 59.962 49.9977 59.4026 50.5866C58.8431 51.1755 58.4014 51.838 58.0776 52.5741C57.7831 53.2808 57.6359 53.9875 57.6359 54.6942H70.1793ZM77.8496 45.9491H81.8246V48.9524H81.9129C82.6785 47.8335 83.7238 46.9649 85.0488 46.3466C86.4033 45.7282 87.7872 45.4191 89.2005 45.4191C90.82 45.4191 92.2775 45.6988 93.5731 46.2582C94.8981 46.8177 96.017 47.598 96.9297 48.5991C97.872 49.6002 98.5934 50.778 99.0939 52.1325C99.5945 53.4575 99.8448 54.8856 99.8448 56.4167C99.8448 57.9772 99.5945 59.4348 99.0939 60.7892C98.5934 62.1142 97.872 63.2773 96.9297 64.2784C96.017 65.2501 94.8981 66.0157 93.5731 66.5751C92.2775 67.1346 90.82 67.4143 89.2005 67.4143C87.6988 67.4143 86.2855 67.1051 84.9605 66.4868C83.6355 65.839 82.6196 64.9704 81.9129 63.8809H81.8246V79.3394H77.8496V45.9491ZM88.7147 49.1291C87.6547 49.1291 86.6977 49.3205 85.8438 49.7033C84.9899 50.0566 84.2685 50.5572 83.6796 51.205C83.0907 51.8233 82.6343 52.5889 82.3104 53.5017C81.9866 54.385 81.8246 55.3567 81.8246 56.4167C81.8246 57.4767 81.9866 58.4631 82.3104 59.3759C82.6343 60.2592 83.0907 61.0248 83.6796 61.6726C84.2685 62.2909 84.9899 62.7915 85.8438 63.1742C86.6977 63.5276 87.6547 63.7042 88.7147 63.7042C89.7747 63.7042 90.7316 63.5276 91.5855 63.1742C92.4394 62.7915 93.1608 62.2909 93.7497 61.6726C94.3386 61.0248 94.795 60.2592 95.1189 59.3759C95.4428 58.4631 95.6047 57.4767 95.6047 56.4167C95.6047 55.3567 95.4428 54.385 95.1189 53.5017C94.795 52.5889 94.3386 51.8233 93.7497 51.205C93.1608 50.5572 92.4394 50.0566 91.5855 49.7033C90.7316 49.3205 89.7747 49.1291 88.7147 49.1291ZM114.346 35.614H118.189L131.571 66.8843H126.625L123.489 59.155H108.604L105.513 66.8843H100.566L114.346 35.614ZM121.943 55.445L116.113 41.0907H116.024L110.106 55.445H121.943ZM134.314 35.614H145.312C147.314 35.614 148.963 35.8937 150.258 36.4532C151.554 36.9832 152.57 37.6751 153.306 38.529C154.071 39.3535 154.601 40.2957 154.896 41.3557C155.19 42.3863 155.338 43.3874 155.338 44.3591C155.338 45.3602 155.161 46.3319 154.808 47.2741C154.454 48.1869 153.939 49.0261 153.262 49.7916C152.614 50.5277 151.804 51.1608 150.833 51.6908C149.89 52.1914 148.83 52.5005 147.653 52.6183L156.53 66.8843H151.23L143.28 53.1041H138.554V66.8843H134.314V35.614ZM138.554 49.3941H144.119C144.944 49.3941 145.753 49.3352 146.548 49.2174C147.373 49.0702 148.094 48.8199 148.713 48.4666C149.36 48.1133 149.876 47.6127 150.258 46.9649C150.641 46.2877 150.833 45.4191 150.833 44.3591C150.833 43.2991 150.641 42.4452 150.258 41.7974C149.876 41.1201 149.36 40.6049 148.713 40.2515C148.094 39.8982 147.373 39.6626 146.548 39.5449C145.753 39.3976 144.944 39.324 144.119 39.324H138.554V49.3941Z" fill="white"/>
</svg>
