<svg id="Layer_1" data-name="Layer 1" xmlns="http://www.w3.org/2000/svg" viewBox="0 0 157 80"><defs><style>.cls-1{fill:#f3f7fa;isolation:isolate;opacity:0.8;}.cls-2{font-size:37.27px;fill:#fff;font-family:Poppins-Medium, Poppins;font-weight:500;}</style></defs><path class="cls-1" d="M17.08,1.84h5.68a6.5,6.5,0,0,1,2.56.44,4.08,4.08,0,0,1,1.57,1.07,3.37,3.37,0,0,1,.82,1.46,5.71,5.71,0,0,1,.23,1.55,6,6,0,0,1-.23,1.58,3.68,3.68,0,0,1-.82,1.46,4.57,4.57,0,0,1-1.57,1.07,6.93,6.93,0,0,1-2.56.41H19.27V18H17.08ZM19.27,9h2.87a8.69,8.69,0,0,0,1.26-.09,3.23,3.23,0,0,0,1.12-.39,2.11,2.11,0,0,0,.8-.77,2.81,2.81,0,0,0,.29-1.35A2.64,2.64,0,0,0,25.32,5a2.05,2.05,0,0,0-.8-.8,3.21,3.21,0,0,0-1.12-.37,7.47,7.47,0,0,0-1.26-.11H19.27Zm12.48,3.63A4.47,4.47,0,0,0,32,14.12a3.53,3.53,0,0,0,.7,1.19,3.44,3.44,0,0,0,1.12.77,4.08,4.08,0,0,0,3,0,3.44,3.44,0,0,0,1.12-.77,3.73,3.73,0,0,0,.71-1.19,4.72,4.72,0,0,0,.25-1.53,4.45,4.45,0,0,0-.25-1.5,3.34,3.34,0,0,0-.71-1.19,3.06,3.06,0,0,0-1.12-.78,3.95,3.95,0,0,0-3,0,3.06,3.06,0,0,0-1.12.78,3.18,3.18,0,0,0-.7,1.19A4.22,4.22,0,0,0,31.75,12.59Zm-2.19,0A5.58,5.58,0,0,1,30,10.38a5.8,5.8,0,0,1,1.23-1.81,5.84,5.84,0,0,1,6.35-1.2,5.5,5.5,0,0,1,1.82,1.2,5.58,5.58,0,0,1,1.21,1.81,5.27,5.27,0,0,1,.46,2.21,5.48,5.48,0,0,1-.46,2.24,5.65,5.65,0,0,1-1.21,1.8,6,6,0,0,1-1.82,1.21,6.15,6.15,0,0,1-4.52,0,6.08,6.08,0,0,1-1.83-1.21A5.88,5.88,0,0,1,30,14.83,5.8,5.8,0,0,1,29.56,12.59ZM42.33,7.18h2.3l2.45,8.08h0L49.7,7.18h2.17l2.74,8.08h0L57,7.18h2.17L55.66,18H53.58L50.73,9.92h0L48.1,18H45.89ZM62.5,13.34a2.87,2.87,0,0,0,.3,1.31,3.35,3.35,0,0,0,.82,1,3.94,3.94,0,0,0,1.16.64,4.23,4.23,0,0,0,1.37.22,3.15,3.15,0,0,0,1.67-.43,5.55,5.55,0,0,0,1.3-1.19l1.55,1.19a5.7,5.7,0,0,1-4.79,2.21,6,6,0,0,1-2.33-.43,5.17,5.17,0,0,1-1.76-1.19,5.3,5.3,0,0,1-1.09-1.8,6.43,6.43,0,0,1-.39-2.26,6.07,6.07,0,0,1,.41-2.24,5.75,5.75,0,0,1,1.16-1.8,5.35,5.35,0,0,1,1.78-1.21,5.7,5.7,0,0,1,2.24-.43,5.35,5.35,0,0,1,2.42.5A4.78,4.78,0,0,1,70,8.73a4.92,4.92,0,0,1,.91,1.83,7.11,7.11,0,0,1,.3,2v.73ZM69,11.7a3.81,3.81,0,0,0-.23-1.25,2.57,2.57,0,0,0-.57-1,2.53,2.53,0,0,0-1-.66,3.46,3.46,0,0,0-1.35-.25,3.24,3.24,0,0,0-1.39.3,3.14,3.14,0,0,0-1,.73,3.36,3.36,0,0,0-.68,1,2.84,2.84,0,0,0-.23,1.09Zm4.65-4.52h2.05V8.85h0a2.63,2.63,0,0,1,.55-.78A3.14,3.14,0,0,1,77,7.46,3.82,3.82,0,0,1,78,7.07a3.23,3.23,0,0,1,1-.16,2.63,2.63,0,0,1,.91.14l-.09,2.21a4.48,4.48,0,0,0-.5-.11,2.18,2.18,0,0,0-.5-.05,3,3,0,0,0-2.31.84,3.74,3.74,0,0,0-.8,2.63V18H73.63Zm9.6,6.16a2.86,2.86,0,0,0,.29,1.31,3.69,3.69,0,0,0,.82,1,4.13,4.13,0,0,0,1.17.64,4.23,4.23,0,0,0,1.37.22,3.09,3.09,0,0,0,1.66-.43,5.36,5.36,0,0,0,1.3-1.19l1.56,1.19a5.72,5.72,0,0,1-4.8,2.21,6,6,0,0,1-2.32-.43,5.17,5.17,0,0,1-1.76-1.19,5.48,5.48,0,0,1-1.1-1.8A6.42,6.42,0,0,1,81,12.59a5.87,5.87,0,0,1,.41-2.24,5.42,5.42,0,0,1,1.16-1.8,5.35,5.35,0,0,1,1.78-1.21,5.66,5.66,0,0,1,2.24-.43,5.38,5.38,0,0,1,2.42.5,5,5,0,0,1,1.64,1.32,5.07,5.07,0,0,1,.91,1.83,7.11,7.11,0,0,1,.3,2v.73Zm6.48-1.64a4.08,4.08,0,0,0-.23-1.25,2.57,2.57,0,0,0-.57-1,2.61,2.61,0,0,0-1-.66,3.46,3.46,0,0,0-1.35-.25,3.21,3.21,0,0,0-1.39.3,3.14,3.14,0,0,0-1,.73,3.58,3.58,0,0,0-.69,1,2.83,2.83,0,0,0-.22,1.09ZM105.2,18h-2.06V16.45h0a3.85,3.85,0,0,1-1.65,1.34,4.93,4.93,0,0,1-2.12.48,5.76,5.76,0,0,1-2.28-.43,5.19,5.19,0,0,1-1.74-1.21,5.67,5.67,0,0,1-1.09-1.8,6.63,6.63,0,0,1,0-4.48,5.26,5.26,0,0,1,1.09-1.8,5.19,5.19,0,0,1,1.74-1.21,5.76,5.76,0,0,1,2.28-.43,5,5,0,0,1,2.19.5,3.7,3.7,0,0,1,1.58,1.32h0v-8h2.06Zm-5.62-1.64a3.77,3.77,0,0,0,1.49-.28,3.29,3.29,0,0,0,1.11-.77,3.56,3.56,0,0,0,.71-1.19,4.47,4.47,0,0,0,.25-1.53,4.22,4.22,0,0,0-.25-1.5,3.2,3.2,0,0,0-.71-1.19,2.94,2.94,0,0,0-1.11-.78,3.6,3.6,0,0,0-1.49-.29,3.52,3.52,0,0,0-1.48.29A3,3,0,0,0,97,9.9a3.34,3.34,0,0,0-.71,1.19,4.22,4.22,0,0,0-.25,1.5,4.47,4.47,0,0,0,.25,1.53A3.73,3.73,0,0,0,97,15.31a3.34,3.34,0,0,0,1.12.77A3.69,3.69,0,0,0,99.58,16.36ZM114.66.75h2v8h.05a3.67,3.67,0,0,1,1.57-1.32,5,5,0,0,1,2.19-.5,5.62,5.62,0,0,1,2.26.43,4.82,4.82,0,0,1,1.74,1.21,5.18,5.18,0,0,1,1.12,1.8,6.79,6.79,0,0,1,0,4.48,5.57,5.57,0,0,1-1.12,1.8,4.82,4.82,0,0,1-1.74,1.21,5.62,5.62,0,0,1-2.26.43,5.09,5.09,0,0,1-2.14-.48,3.76,3.76,0,0,1-1.62-1.34h-.05V18h-2Zm5.61,15.61a3.73,3.73,0,0,0,1.49-.28,3.29,3.29,0,0,0,1.11-.77,3.56,3.56,0,0,0,.71-1.19,4.47,4.47,0,0,0,.25-1.53,4.22,4.22,0,0,0-.25-1.5,3.2,3.2,0,0,0-.71-1.19,2.94,2.94,0,0,0-1.11-.78,3.57,3.57,0,0,0-1.49-.29,3.52,3.52,0,0,0-1.48.29,3,3,0,0,0-1.12.78,3.34,3.34,0,0,0-.71,1.19,4.45,4.45,0,0,0-.25,1.5,4.72,4.72,0,0,0,.25,1.53,3.73,3.73,0,0,0,.71,1.19,3.34,3.34,0,0,0,1.12.77A3.69,3.69,0,0,0,120.27,16.36Zm7-9.18h2.37l3.22,8.45h0L136,7.18h2.22l-5.14,13.15a11.92,11.92,0,0,1-.57,1.28,3.53,3.53,0,0,1-.71,1,2.78,2.78,0,0,1-1,.64,3.85,3.85,0,0,1-1.41.23,7.57,7.57,0,0,1-.94-.07,3.16,3.16,0,0,1-.89-.23l.25-1.87a3.18,3.18,0,0,0,1.23.25,2,2,0,0,0,.8-.14,1.21,1.21,0,0,0,.57-.36,1.72,1.72,0,0,0,.41-.55,6.36,6.36,0,0,0,.32-.73l.66-1.71Z"/><text class="cls-2" transform="translate(0.1 61.99)">yoloway</text></svg>