<svg width="2280" height="354" viewBox="0 0 2280 354" fill="none" xmlns="http://www.w3.org/2000/svg">
  <path
    d="M41.35 353.67H9.35C6.68 353.67 0 353.67 0 349.67C0 347.02 1.34 345.67 5.34 344.33C34.71 334.98 41.34 318.98 41.34 296.33V57.4C41.34 36.04 34.66 20.03 5.34 9.4C1.34 9.4 0 6.73 0 5.4C0 0.0700002 6.68 1.4 9.35 1.4H273.56C333.61 1.4 383 49.4 383 109.49C383 169.58 333.61 217.52 273.56 217.52H140.11V298.93C141.45 320.28 148.11 334.93 176.11 344.3C180.11 345.64 181.44 346.98 181.44 349.64C181.44 353.64 174.77 353.64 172.1 353.64H41.35V353.67ZM2011.15 224.22H2073.87L2011.15 117.45L2004.46 106.77L1948.46 224.22H2011.15ZM2011.15 0.03H2053.86L2232.67 315.03C2238.02 323.03 2244.67 331.03 2252.67 335.03C2259.34 340.38 2267.34 341.73 2274.01 344.38C2276.69 345.73 2279.35 347.07 2279.35 349.73C2279.35 353.73 2272.68 353.73 2270 353.73H2111.2C2108.54 353.73 2100.51 353.73 2100.51 349.73C2100.51 347.07 2103.19 345.73 2105.88 344.38C2113.88 341.73 2119.2 337.72 2121.88 329.72C2124.56 320.36 2121.88 315.05 2115.21 303.01C2106.15 283.75 2096.82 264.623 2087.21 245.63H1937.74L1936.42 248.29C1935.07 253.64 1924.42 272.29 1916.42 292.34C1905.76 313.69 1901.75 319.02 1904.42 329.7C1905.77 337.7 1912.42 341.7 1920.42 344.37C1923.11 345.72 1924.42 347.06 1924.42 349.71C1924.42 353.71 1917.73 353.71 1915.07 353.71H1841.66C1839 353.71 1832.31 353.71 1832.31 349.71C1832.31 347.06 1833.66 345.71 1837.65 344.37C1844.34 341.71 1852.32 340.37 1859 335.02C1867 331.02 1873.69 323.02 1879 315.02L1888.35 295.02L1989.78 82.76L1975.08 57.4C1961.76 36.04 1948.4 22.7 1933.72 14.69C1927.05 10.69 1920.37 10.69 1913.72 8.02C1909.72 6.68 1908.37 5.34 1909.72 2.67C1909.72 0 1912.38 1.34 1913.72 0H2011.16L2011.15 0.03ZM1612.15 352.32H1617.49C1863.06 352.32 1860.4 1.32 1617.49 1.32H1415.98C1411.98 1.32 1405.32 -0.02 1405.32 5.32C1405.32 6.65 1407.98 9.32 1410.64 9.32C1440 18.66 1446.64 34.68 1448 54.71V299C1446.68 320.34 1440 335 1410.64 344.36C1407.98 345.71 1405.32 347.05 1405.32 349.71C1405.32 353.71 1411.99 353.71 1415.98 353.71H1545.43V352.36H1612.15V352.32ZM1612.15 26.7C1630.18 26.771 1647.45 33.9635 1660.21 46.711C1672.96 59.4585 1680.16 76.7285 1680.24 94.76V257.58C1680.16 275.612 1672.96 292.884 1660.21 305.632C1647.46 318.38 1630.18 325.572 1612.15 325.64H1545.38V26.7H1612.15ZM1103.66 224.22H1166.38L1103.66 117.45L1096.98 106.77L1040.98 224.22H1103.66ZM1103.66 0.03H1147.66L1326.49 315.03C1330.49 323.03 1337.17 331.03 1345.18 335.03C1351.84 340.38 1359.87 341.73 1367.87 344.38C1370.53 345.73 1373.19 347.07 1373.19 349.73C1373.19 353.73 1365.19 353.73 1362.53 353.73H1203.78C1201.1 353.73 1194.43 353.73 1194.43 349.73C1194.43 347.07 1195.75 345.73 1199.75 344.38C1206.44 341.73 1213.09 337.72 1214.44 329.72C1217.1 320.36 1214.44 315.05 1209.1 303.01C1199.75 283.01 1189.1 264.31 1179.76 245.63H1030.25L1028.92 248.29C1027.59 253.64 1018.24 272.29 1008.92 292.34C999.58 313.69 994.25 319.02 996.92 329.7C999.59 337.7 1004.92 341.7 1012.92 344.37C1015.58 345.72 1018.25 347.06 1018.25 349.71C1018.25 353.71 1011.58 353.71 1007.59 353.71H935.5C932.83 353.71 924.82 353.71 924.82 349.71C924.82 347.06 927.49 345.71 930.16 344.37C938.16 341.71 944.84 340.37 952.86 335.02C959.52 331.02 967.54 323.02 971.53 315.02L980.87 295.02L1083.64 82.76L1068.98 57.4C1055.64 36.04 1040.98 22.7 1027.61 14.69C1019.61 10.69 1014.26 10.69 1006.25 8.02C1003.57 6.68 1000.9 5.34 1002.25 2.67C1003.6 0 1006.25 1.34 1007.6 0H1103.68L1103.66 0.03ZM663.25 233.57C693.95 244.23 731.32 246.89 760.67 237.57L876.79 337.67L886.13 345.67C886.64 346.193 887.026 346.824 887.26 347.516C887.494 348.209 887.569 348.945 887.48 349.67C887.48 353.67 880.8 353.67 878.12 353.67H755.35L663.27 277.6L588.52 217.53V300.29C589.87 320.29 597.87 334.98 625.89 344.29C628.56 345.64 629.89 346.97 629.89 349.63C629.89 353.63 623.21 353.63 620.53 353.63H459.06C455.06 353.63 448.38 353.63 448.38 349.63C448.38 346.97 451.06 345.63 453.71 344.29C485.71 333.63 489.71 317.61 491.08 292.29V61.4C489.74 37.4 485.74 20.03 453.71 9.4C451.04 9.4 448.38 6.73 448.38 5.4C448.38 0.0700002 455.06 1.4 459.06 1.4H719.3C733.436 1.33946 747.446 4.06408 760.529 9.41827C773.613 14.7725 785.513 22.6513 795.552 32.605C805.59 42.5587 813.569 54.3922 819.033 67.4297C824.498 80.4673 827.341 94.4536 827.4 108.59V109.49C827.501 138.025 816.268 165.433 796.171 185.69C776.073 205.947 748.755 217.396 720.22 217.52H635.22C639.22 225.52 648.56 228.2 656.56 232.21C659.24 232.21 660.56 233.57 663.24 233.57H663.25ZM663.25 192.2H673.98C708.67 192.2 738.04 154.82 738.04 106.77C737.98 60.06 708.62 22.7 673.98 22.7H588.51V192.2H663.25ZM216.17 22.71H140.11V192.21H228.2C264.2 192.21 292.2 154.83 292.2 106.78C292.2 60.08 264.2 22.71 228.2 22.71H216.17Z"
    fill="white" />
</svg>