<svg id="Layer_1" data-name="Layer 1" xmlns="http://www.w3.org/2000/svg" viewBox="0 0 157 80"><defs><style>.cls-1{fill:#f3f7fa;isolation:isolate;opacity:0.8;}.cls-2{font-size:35.71px;fill:#fff;font-family:Poppins-Medium, Poppins;font-weight:500;}</style></defs><path class="cls-1" d="M20.47,1.32h5.44a6.13,6.13,0,0,1,2.45.42,3.78,3.78,0,0,1,1.51,1,3.31,3.31,0,0,1,.79,1.4,5.59,5.59,0,0,1,.22,1.48,5.87,5.87,0,0,1-.22,1.51,3.57,3.57,0,0,1-.79,1.4,4.23,4.23,0,0,1-1.51,1,6.55,6.55,0,0,1-2.45.39H22.57V16.8h-2.1Zm2.1,6.82h2.75a8.11,8.11,0,0,0,1.21-.08,3.75,3.75,0,0,0,1.07-.37,2,2,0,0,0,.76-.75,2.57,2.57,0,0,0,.29-1.29,2.49,2.49,0,0,0-.29-1.27,1.92,1.92,0,0,0-.76-.76,3,3,0,0,0-1.07-.35,7,7,0,0,0-1.21-.11H22.57Zm12,3.48a4.4,4.4,0,0,0,.24,1.47,3.66,3.66,0,0,0,.68,1.13,3.32,3.32,0,0,0,1.07.75,4,4,0,0,0,2.85,0,3.32,3.32,0,0,0,1.07-.75,3.66,3.66,0,0,0,.68-1.13,4.4,4.4,0,0,0,.24-1.47,4.18,4.18,0,0,0-.24-1.44A3.39,3.39,0,0,0,40.43,9a2.9,2.9,0,0,0-1.07-.74,3.65,3.65,0,0,0-2.85,0A2.9,2.9,0,0,0,35.44,9a3.39,3.39,0,0,0-.68,1.14A4.18,4.18,0,0,0,34.52,11.62Zm-2.09,0a5.34,5.34,0,0,1,.41-2.12A5.77,5.77,0,0,1,34,7.77a5.51,5.51,0,0,1,1.75-1.16,5.67,5.67,0,0,1,4.33,0A5.33,5.33,0,0,1,43,9.5a5.19,5.19,0,0,1,.43,2.12A5.31,5.31,0,0,1,43,13.76a5.42,5.42,0,0,1-1.16,1.73,5.87,5.87,0,0,1-1.75,1.16,5.79,5.79,0,0,1-4.33,0A5.87,5.87,0,0,1,34,15.49a5.65,5.65,0,0,1-1.18-1.73A5.47,5.47,0,0,1,32.43,11.62ZM44.66,6.44h2.21l2.34,7.74h0l2.47-7.74H53.8l2.63,7.74h0L58.7,6.44h2.08L57.43,16.8h-2L52.71,9.06h0L50.2,16.8H48.07ZM64,12.34a2.76,2.76,0,0,0,.28,1.25,3.41,3.41,0,0,0,.79.94,3.52,3.52,0,0,0,1.11.61,3.93,3.93,0,0,0,1.32.22,3,3,0,0,0,1.59-.42,5.5,5.5,0,0,0,1.25-1.13l1.48,1.13a5.45,5.45,0,0,1-4.59,2.13A5.75,5.75,0,0,1,65,16.65a5.2,5.2,0,0,1-1.68-1.14,5.37,5.37,0,0,1-1.05-1.72,6.22,6.22,0,0,1-.37-2.17,5.74,5.74,0,0,1,.39-2.14A5.44,5.44,0,0,1,63.4,7.75a5.29,5.29,0,0,1,1.7-1.16,5.59,5.59,0,0,1,2.14-.41,5,5,0,0,1,2.32.48,4.51,4.51,0,0,1,1.58,1.27A4.72,4.72,0,0,1,72,9.68a6.84,6.84,0,0,1,.29,2v.7Zm6.21-1.57A4.06,4.06,0,0,0,70,9.57a2.39,2.39,0,0,0-.55-.94A2.42,2.42,0,0,0,68.49,8a3.16,3.16,0,0,0-1.29-.24A3.12,3.12,0,0,0,65.87,8a3,3,0,0,0-1,.69,3.4,3.4,0,0,0-.65,1,2.64,2.64,0,0,0-.22,1Zm4.45-4.33h2V8h0a2.62,2.62,0,0,1,.53-.75,3.38,3.38,0,0,1,.72-.59,3.71,3.71,0,0,1,.89-.37,3.27,3.27,0,0,1,1-.15,2.65,2.65,0,0,1,.87.13l-.09,2.12-.48-.11a2.59,2.59,0,0,0-.48,0,2.93,2.93,0,0,0-2.21.8,3.57,3.57,0,0,0-.76,2.52v5.2h-2Zm9.19,5.9a2.77,2.77,0,0,0,.29,1.25,3.25,3.25,0,0,0,.79.94,3.52,3.52,0,0,0,1.11.61,3.88,3.88,0,0,0,1.31.22,3,3,0,0,0,1.6-.42,5.5,5.5,0,0,0,1.25-1.13l1.48,1.13a5.45,5.45,0,0,1-4.59,2.13,5.72,5.72,0,0,1-2.23-.42,4.78,4.78,0,0,1-2.73-2.86,6.22,6.22,0,0,1-.37-2.17,5.74,5.74,0,0,1,.39-2.14,5.59,5.59,0,0,1,1.11-1.73A5.34,5.34,0,0,1,85,6.59a5.59,5.59,0,0,1,2.14-.41,5.07,5.07,0,0,1,2.32.48A4.38,4.38,0,0,1,91,7.93a4.74,4.74,0,0,1,.88,1.75,6.83,6.83,0,0,1,.28,2v.7Zm6.21-1.57a3.77,3.77,0,0,0-.21-1.2,2.39,2.39,0,0,0-.55-.94A2.42,2.42,0,0,0,88.35,8a3.23,3.23,0,0,0-1.29-.24A3.16,3.16,0,0,0,85.72,8a3.08,3.08,0,0,0-1,.69,3.43,3.43,0,0,0-.66,1,2.82,2.82,0,0,0-.22,1Zm14.84,6h-2V15.32h-.05a3.79,3.79,0,0,1-1.57,1.29,4.89,4.89,0,0,1-2,.46,5.47,5.47,0,0,1-2.18-.42,4.88,4.88,0,0,1-1.66-1.16,5,5,0,0,1-1.05-1.73,6.22,6.22,0,0,1,0-4.28,4.81,4.81,0,0,1,1.05-1.73,5,5,0,0,1,1.66-1.16,5.65,5.65,0,0,1,2.18-.41,4.69,4.69,0,0,1,2.1.48,3.45,3.45,0,0,1,1.51,1.27h.05V.27h2Zm-5.38-1.57a3.83,3.83,0,0,0,1.43-.26,3.32,3.32,0,0,0,1.07-.75,3.46,3.46,0,0,0,.67-1.13,4.4,4.4,0,0,0,.25-1.47,4.19,4.19,0,0,0-.25-1.44A3.22,3.22,0,0,0,102,9a2.9,2.9,0,0,0-1.07-.74,3.65,3.65,0,0,0-2.85,0A2.9,2.9,0,0,0,97,9a3.23,3.23,0,0,0-.68,1.14,4.18,4.18,0,0,0-.24,1.44,4.4,4.4,0,0,0,.24,1.47A3.48,3.48,0,0,0,97,14.22a3.32,3.32,0,0,0,1.07.75A3.82,3.82,0,0,0,99.51,15.23ZM114,.27h2V7.93h0a3.45,3.45,0,0,1,1.51-1.27,4.69,4.69,0,0,1,2.1-.48,5.51,5.51,0,0,1,2.16.41,4.73,4.73,0,0,1,1.66,1.16,4.88,4.88,0,0,1,1.08,1.73,6.37,6.37,0,0,1,0,4.28,5.06,5.06,0,0,1-1.08,1.73,4.6,4.6,0,0,1-1.66,1.16,5.34,5.34,0,0,1-2.16.42,5,5,0,0,1-2.06-.46A3.86,3.86,0,0,1,116,15.32h0V16.8h-2Zm5.38,15a3.78,3.78,0,0,0,1.42-.26,3.32,3.32,0,0,0,1.07-.75,3.48,3.48,0,0,0,.68-1.13,4.4,4.4,0,0,0,.24-1.47,4.18,4.18,0,0,0-.24-1.44A3.23,3.23,0,0,0,121.83,9a2.9,2.9,0,0,0-1.07-.74,3.62,3.62,0,0,0-2.84,0,2.93,2.93,0,0,0-1.08.74,3.22,3.22,0,0,0-.67,1.14,4.18,4.18,0,0,0-.24,1.44,4.4,4.4,0,0,0,.24,1.47,3.46,3.46,0,0,0,.67,1.13,3.37,3.37,0,0,0,1.08.75A3.74,3.74,0,0,0,119.34,15.23Zm6.74-8.79h2.27l3.09,8.09h0l2.93-8.09h2.12L131.61,19a11.88,11.88,0,0,1-.55,1.23,3.64,3.64,0,0,1-.67,1,2.76,2.76,0,0,1-1,.61,3.53,3.53,0,0,1-1.35.22,5.63,5.63,0,0,1-.9-.07,2.86,2.86,0,0,1-.85-.21l.24-1.8a3.11,3.11,0,0,0,1.18.24,1.85,1.85,0,0,0,.76-.13,1.21,1.21,0,0,0,.55-.35,1.9,1.9,0,0,0,.4-.52c.1-.21.2-.44.3-.7l.64-1.64Z"/><text class="cls-2" transform="translate(3.39 58.94)">yoloway</text></svg>